<mxfile host="Electron" agent="Mozilla/5.0 (Windows NT 10.0; Win64; x64) AppleWebKit/537.36 (KHTML, like Gecko) draw.io/26.0.9 Chrome/128.0.6613.186 Electron/32.2.5 Safari/537.36" version="26.0.9">
  <diagram name="Página-1" id="NiZ6BTJeo9T8O6ac4BM0">
    <mxGraphModel dx="1050" dy="621" grid="1" gridSize="10" guides="1" tooltips="1" connect="1" arrows="1" fold="1" page="1" pageScale="1" pageWidth="850" pageHeight="1100" math="0" shadow="0">
      <root>
        <mxCell id="0" />
        <mxCell id="1" parent="0" />
        <mxCell id="hdlZlnbyhK9wcA2C82vx-3" value="" style="edgeStyle=orthogonalEdgeStyle;rounded=0;orthogonalLoop=1;jettySize=auto;html=1;" parent="1" source="hdlZlnbyhK9wcA2C82vx-1" target="hdlZlnbyhK9wcA2C82vx-2" edge="1">
          <mxGeometry relative="1" as="geometry" />
        </mxCell>
        <mxCell id="hdlZlnbyhK9wcA2C82vx-1" value="INICIO" style="ellipse;whiteSpace=wrap;html=1;aspect=fixed;" parent="1" vertex="1">
          <mxGeometry x="80" y="50" width="80" height="80" as="geometry" />
        </mxCell>
        <mxCell id="hdlZlnbyhK9wcA2C82vx-6" value="" style="edgeStyle=orthogonalEdgeStyle;rounded=0;orthogonalLoop=1;jettySize=auto;html=1;" parent="1" source="hdlZlnbyhK9wcA2C82vx-2" target="hdlZlnbyhK9wcA2C82vx-5" edge="1">
          <mxGeometry relative="1" as="geometry" />
        </mxCell>
        <mxCell id="hdlZlnbyhK9wcA2C82vx-2" value="&quot;Dame un número entero&quot;" style="shape=parallelogram;perimeter=parallelogramPerimeter;whiteSpace=wrap;html=1;fixedSize=1;" parent="1" vertex="1">
          <mxGeometry x="30" y="180" width="180" height="60" as="geometry" />
        </mxCell>
        <mxCell id="hdlZlnbyhK9wcA2C82vx-4" value="" style="endArrow=classic;html=1;rounded=0;" parent="1" edge="1">
          <mxGeometry width="50" height="50" relative="1" as="geometry">
            <mxPoint x="190" y="200" as="sourcePoint" />
            <mxPoint x="240" y="150" as="targetPoint" />
          </mxGeometry>
        </mxCell>
        <mxCell id="hdlZlnbyhK9wcA2C82vx-9" style="edgeStyle=orthogonalEdgeStyle;rounded=0;orthogonalLoop=1;jettySize=auto;html=1;entryX=0.5;entryY=0;entryDx=0;entryDy=0;" parent="1" source="hdlZlnbyhK9wcA2C82vx-5" target="hdlZlnbyhK9wcA2C82vx-8" edge="1">
          <mxGeometry relative="1" as="geometry" />
        </mxCell>
        <mxCell id="hdlZlnbyhK9wcA2C82vx-5" value="Leer N" style="shape=parallelogram;perimeter=parallelogramPerimeter;whiteSpace=wrap;html=1;fixedSize=1;" parent="1" vertex="1">
          <mxGeometry x="30" y="270" width="180" height="60" as="geometry" />
        </mxCell>
        <mxCell id="hdlZlnbyhK9wcA2C82vx-7" value="" style="endArrow=classic;html=1;rounded=0;" parent="1" edge="1">
          <mxGeometry width="50" height="50" relative="1" as="geometry">
            <mxPoint x="240" y="240" as="sourcePoint" />
            <mxPoint x="180" y="290" as="targetPoint" />
          </mxGeometry>
        </mxCell>
        <mxCell id="hdlZlnbyhK9wcA2C82vx-11" value="" style="edgeStyle=orthogonalEdgeStyle;rounded=0;orthogonalLoop=1;jettySize=auto;html=1;" parent="1" source="hdlZlnbyhK9wcA2C82vx-8" target="hdlZlnbyhK9wcA2C82vx-10" edge="1">
          <mxGeometry relative="1" as="geometry" />
        </mxCell>
        <mxCell id="hdlZlnbyhK9wcA2C82vx-13" value="SI" style="edgeLabel;html=1;align=center;verticalAlign=middle;resizable=0;points=[];" parent="hdlZlnbyhK9wcA2C82vx-11" vertex="1" connectable="0">
          <mxGeometry x="-0.0743" y="2" relative="1" as="geometry">
            <mxPoint as="offset" />
          </mxGeometry>
        </mxCell>
        <mxCell id="hdlZlnbyhK9wcA2C82vx-15" value="" style="edgeStyle=orthogonalEdgeStyle;rounded=0;orthogonalLoop=1;jettySize=auto;html=1;" parent="1" source="hdlZlnbyhK9wcA2C82vx-8" target="hdlZlnbyhK9wcA2C82vx-14" edge="1">
          <mxGeometry relative="1" as="geometry" />
        </mxCell>
        <mxCell id="hdlZlnbyhK9wcA2C82vx-28" value="NO" style="edgeLabel;html=1;align=center;verticalAlign=middle;resizable=0;points=[];" parent="hdlZlnbyhK9wcA2C82vx-15" vertex="1" connectable="0">
          <mxGeometry x="-0.0187" relative="1" as="geometry">
            <mxPoint as="offset" />
          </mxGeometry>
        </mxCell>
        <mxCell id="hdlZlnbyhK9wcA2C82vx-8" value="N == 0" style="rhombus;whiteSpace=wrap;html=1;" parent="1" vertex="1">
          <mxGeometry x="80" y="370" width="80" height="80" as="geometry" />
        </mxCell>
        <mxCell id="hdlZlnbyhK9wcA2C82vx-26" value="" style="edgeStyle=orthogonalEdgeStyle;rounded=0;orthogonalLoop=1;jettySize=auto;html=1;" parent="1" source="hdlZlnbyhK9wcA2C82vx-10" target="hdlZlnbyhK9wcA2C82vx-25" edge="1">
          <mxGeometry relative="1" as="geometry" />
        </mxCell>
        <mxCell id="hdlZlnbyhK9wcA2C82vx-10" value="&quot;El factorial de &quot;, N, &quot;es 1&quot;" style="shape=parallelogram;perimeter=parallelogramPerimeter;whiteSpace=wrap;html=1;fixedSize=1;" parent="1" vertex="1">
          <mxGeometry x="10" y="520" width="220" height="60" as="geometry" />
        </mxCell>
        <mxCell id="hdlZlnbyhK9wcA2C82vx-12" value="" style="endArrow=classic;html=1;rounded=0;" parent="1" edge="1">
          <mxGeometry width="50" height="50" relative="1" as="geometry">
            <mxPoint x="200" y="550" as="sourcePoint" />
            <mxPoint x="250" y="500" as="targetPoint" />
          </mxGeometry>
        </mxCell>
        <mxCell id="hdlZlnbyhK9wcA2C82vx-17" value="" style="edgeStyle=orthogonalEdgeStyle;rounded=0;orthogonalLoop=1;jettySize=auto;html=1;" parent="1" source="hdlZlnbyhK9wcA2C82vx-14" target="hdlZlnbyhK9wcA2C82vx-16" edge="1">
          <mxGeometry relative="1" as="geometry" />
        </mxCell>
        <mxCell id="hdlZlnbyhK9wcA2C82vx-14" value="Factorial = 1&lt;div&gt;i = 1&lt;/div&gt;" style="whiteSpace=wrap;html=1;" parent="1" vertex="1">
          <mxGeometry x="220" y="380" width="120" height="60" as="geometry" />
        </mxCell>
        <mxCell id="hdlZlnbyhK9wcA2C82vx-19" value="" style="edgeStyle=orthogonalEdgeStyle;rounded=0;orthogonalLoop=1;jettySize=auto;html=1;" parent="1" source="hdlZlnbyhK9wcA2C82vx-16" target="hdlZlnbyhK9wcA2C82vx-18" edge="1">
          <mxGeometry relative="1" as="geometry" />
        </mxCell>
        <mxCell id="hdlZlnbyhK9wcA2C82vx-20" value="SI" style="edgeLabel;html=1;align=center;verticalAlign=middle;resizable=0;points=[];" parent="hdlZlnbyhK9wcA2C82vx-19" vertex="1" connectable="0">
          <mxGeometry x="-0.2278" y="-1" relative="1" as="geometry">
            <mxPoint as="offset" />
          </mxGeometry>
        </mxCell>
        <mxCell id="hdlZlnbyhK9wcA2C82vx-23" value="" style="edgeStyle=orthogonalEdgeStyle;rounded=0;orthogonalLoop=1;jettySize=auto;html=1;" parent="1" source="hdlZlnbyhK9wcA2C82vx-16" target="hdlZlnbyhK9wcA2C82vx-22" edge="1">
          <mxGeometry relative="1" as="geometry" />
        </mxCell>
        <mxCell id="hdlZlnbyhK9wcA2C82vx-29" value="NO" style="edgeLabel;html=1;align=center;verticalAlign=middle;resizable=0;points=[];" parent="hdlZlnbyhK9wcA2C82vx-23" vertex="1" connectable="0">
          <mxGeometry x="0.0142" relative="1" as="geometry">
            <mxPoint as="offset" />
          </mxGeometry>
        </mxCell>
        <mxCell id="hdlZlnbyhK9wcA2C82vx-16" value="i &amp;lt;= N" style="rhombus;whiteSpace=wrap;html=1;" parent="1" vertex="1">
          <mxGeometry x="400" y="365" width="190" height="90" as="geometry" />
        </mxCell>
        <mxCell id="hdlZlnbyhK9wcA2C82vx-21" style="edgeStyle=orthogonalEdgeStyle;rounded=0;orthogonalLoop=1;jettySize=auto;html=1;" parent="1" source="hdlZlnbyhK9wcA2C82vx-18" edge="1">
          <mxGeometry relative="1" as="geometry">
            <mxPoint x="360" y="410" as="targetPoint" />
            <Array as="points">
              <mxPoint x="802" y="280" />
              <mxPoint x="360" y="280" />
            </Array>
          </mxGeometry>
        </mxCell>
        <mxCell id="hdlZlnbyhK9wcA2C82vx-18" value="Factorial = Factorial * i&lt;div&gt;i = i + 1&lt;/div&gt;" style="whiteSpace=wrap;html=1;" parent="1" vertex="1">
          <mxGeometry x="705" y="380" width="195" height="60" as="geometry" />
        </mxCell>
        <mxCell id="hdlZlnbyhK9wcA2C82vx-27" style="edgeStyle=orthogonalEdgeStyle;rounded=0;orthogonalLoop=1;jettySize=auto;html=1;" parent="1" source="hdlZlnbyhK9wcA2C82vx-22" edge="1">
          <mxGeometry relative="1" as="geometry">
            <mxPoint x="320" y="650" as="targetPoint" />
          </mxGeometry>
        </mxCell>
        <mxCell id="hdlZlnbyhK9wcA2C82vx-22" value="&quot;El factorial de &quot;, N, &quot;es&quot;, Factorial" style="shape=parallelogram;perimeter=parallelogramPerimeter;whiteSpace=wrap;html=1;fixedSize=1;" parent="1" vertex="1">
          <mxGeometry x="387.5" y="520" width="215" height="60" as="geometry" />
        </mxCell>
        <mxCell id="hdlZlnbyhK9wcA2C82vx-24" value="" style="endArrow=classic;html=1;rounded=0;" parent="1" edge="1">
          <mxGeometry width="50" height="50" relative="1" as="geometry">
            <mxPoint x="580" y="540" as="sourcePoint" />
            <mxPoint x="630" y="490" as="targetPoint" />
          </mxGeometry>
        </mxCell>
        <mxCell id="hdlZlnbyhK9wcA2C82vx-25" value="FIN" style="ellipse;whiteSpace=wrap;html=1;" parent="1" vertex="1">
          <mxGeometry x="280" y="650" width="80" height="80" as="geometry" />
        </mxCell>
        <mxCell id="hdlZlnbyhK9wcA2C82vx-30" value="" style="edgeStyle=orthogonalEdgeStyle;rounded=0;orthogonalLoop=1;jettySize=auto;html=1;" parent="1" source="hdlZlnbyhK9wcA2C82vx-31" target="hdlZlnbyhK9wcA2C82vx-33" edge="1">
          <mxGeometry relative="1" as="geometry" />
        </mxCell>
        <mxCell id="hdlZlnbyhK9wcA2C82vx-31" value="INICIO" style="ellipse;whiteSpace=wrap;html=1;aspect=fixed;" parent="1" vertex="1">
          <mxGeometry x="145" y="970" width="80" height="80" as="geometry" />
        </mxCell>
        <mxCell id="hdlZlnbyhK9wcA2C82vx-32" value="" style="edgeStyle=orthogonalEdgeStyle;rounded=0;orthogonalLoop=1;jettySize=auto;html=1;" parent="1" source="hdlZlnbyhK9wcA2C82vx-33" target="hdlZlnbyhK9wcA2C82vx-36" edge="1">
          <mxGeometry relative="1" as="geometry" />
        </mxCell>
        <mxCell id="hdlZlnbyhK9wcA2C82vx-33" value="&quot;Dame un número entero o escribe &#39;FIN&#39; para salir&quot;" style="shape=parallelogram;perimeter=parallelogramPerimeter;whiteSpace=wrap;html=1;fixedSize=1;" parent="1" vertex="1">
          <mxGeometry x="10" y="1200" width="350" height="60" as="geometry" />
        </mxCell>
        <mxCell id="hdlZlnbyhK9wcA2C82vx-34" value="" style="endArrow=classic;html=1;rounded=0;" parent="1" edge="1">
          <mxGeometry width="50" height="50" relative="1" as="geometry">
            <mxPoint x="335" y="1220" as="sourcePoint" />
            <mxPoint x="385" y="1170" as="targetPoint" />
          </mxGeometry>
        </mxCell>
        <mxCell id="hdlZlnbyhK9wcA2C82vx-71" style="edgeStyle=orthogonalEdgeStyle;rounded=0;orthogonalLoop=1;jettySize=auto;html=1;exitX=0.5;exitY=1;exitDx=0;exitDy=0;entryX=0.5;entryY=0;entryDx=0;entryDy=0;" parent="1" source="hdlZlnbyhK9wcA2C82vx-36" target="hdlZlnbyhK9wcA2C82vx-61" edge="1">
          <mxGeometry relative="1" as="geometry" />
        </mxCell>
        <mxCell id="hdlZlnbyhK9wcA2C82vx-36" value="Leer N" style="shape=parallelogram;perimeter=parallelogramPerimeter;whiteSpace=wrap;html=1;fixedSize=1;" parent="1" vertex="1">
          <mxGeometry x="95" y="1290" width="180" height="60" as="geometry" />
        </mxCell>
        <mxCell id="hdlZlnbyhK9wcA2C82vx-37" value="" style="endArrow=classic;html=1;rounded=0;" parent="1" edge="1">
          <mxGeometry width="50" height="50" relative="1" as="geometry">
            <mxPoint x="295" y="1270" as="sourcePoint" />
            <mxPoint x="235" y="1320" as="targetPoint" />
          </mxGeometry>
        </mxCell>
        <mxCell id="hdlZlnbyhK9wcA2C82vx-59" value="&lt;div&gt;flag = False&lt;/div&gt;&lt;div&gt;max = 0&lt;/div&gt;" style="whiteSpace=wrap;html=1;" parent="1" vertex="1">
          <mxGeometry x="125" y="1080" width="120" height="60" as="geometry" />
        </mxCell>
        <mxCell id="hdlZlnbyhK9wcA2C82vx-64" value="" style="edgeStyle=orthogonalEdgeStyle;rounded=0;orthogonalLoop=1;jettySize=auto;html=1;entryX=0;entryY=0.5;entryDx=0;entryDy=0;" parent="1" source="hdlZlnbyhK9wcA2C82vx-61" target="hdlZlnbyhK9wcA2C82vx-68" edge="1">
          <mxGeometry relative="1" as="geometry">
            <mxPoint x="360" y="1494.9999999999998" as="targetPoint" />
          </mxGeometry>
        </mxCell>
        <mxCell id="hdlZlnbyhK9wcA2C82vx-75" value="NO" style="edgeLabel;html=1;align=center;verticalAlign=middle;resizable=0;points=[];" parent="hdlZlnbyhK9wcA2C82vx-64" vertex="1" connectable="0">
          <mxGeometry x="-0.5159" y="-2" relative="1" as="geometry">
            <mxPoint as="offset" />
          </mxGeometry>
        </mxCell>
        <mxCell id="hdlZlnbyhK9wcA2C82vx-100" value="" style="edgeStyle=orthogonalEdgeStyle;rounded=0;orthogonalLoop=1;jettySize=auto;html=1;" parent="1" source="hdlZlnbyhK9wcA2C82vx-61" target="hdlZlnbyhK9wcA2C82vx-99" edge="1">
          <mxGeometry relative="1" as="geometry" />
        </mxCell>
        <mxCell id="hdlZlnbyhK9wcA2C82vx-110" value="SI" style="edgeLabel;html=1;align=center;verticalAlign=middle;resizable=0;points=[];" parent="hdlZlnbyhK9wcA2C82vx-100" vertex="1" connectable="0">
          <mxGeometry x="0.06" y="1" relative="1" as="geometry">
            <mxPoint as="offset" />
          </mxGeometry>
        </mxCell>
        <mxCell id="hdlZlnbyhK9wcA2C82vx-61" value="N == &quot;FIN&quot;" style="rhombus;whiteSpace=wrap;html=1;" parent="1" vertex="1">
          <mxGeometry x="135" y="1390" width="100" height="90" as="geometry" />
        </mxCell>
        <mxCell id="hdlZlnbyhK9wcA2C82vx-73" value="" style="edgeStyle=orthogonalEdgeStyle;rounded=0;orthogonalLoop=1;jettySize=auto;html=1;" parent="1" source="hdlZlnbyhK9wcA2C82vx-68" target="hdlZlnbyhK9wcA2C82vx-72" edge="1">
          <mxGeometry relative="1" as="geometry" />
        </mxCell>
        <mxCell id="hdlZlnbyhK9wcA2C82vx-74" value="SI" style="edgeLabel;html=1;align=center;verticalAlign=middle;resizable=0;points=[];" parent="hdlZlnbyhK9wcA2C82vx-73" vertex="1" connectable="0">
          <mxGeometry x="-0.168" y="2" relative="1" as="geometry">
            <mxPoint as="offset" />
          </mxGeometry>
        </mxCell>
        <mxCell id="hdlZlnbyhK9wcA2C82vx-96" value="" style="edgeStyle=orthogonalEdgeStyle;rounded=0;orthogonalLoop=1;jettySize=auto;html=1;" parent="1" source="hdlZlnbyhK9wcA2C82vx-68" target="hdlZlnbyhK9wcA2C82vx-95" edge="1">
          <mxGeometry relative="1" as="geometry" />
        </mxCell>
        <mxCell id="hdlZlnbyhK9wcA2C82vx-68" value="N &amp;gt; max" style="rhombus;whiteSpace=wrap;html=1;" parent="1" vertex="1">
          <mxGeometry x="355" y="1395" width="130" height="80" as="geometry" />
        </mxCell>
        <mxCell id="hdlZlnbyhK9wcA2C82vx-76" style="edgeStyle=orthogonalEdgeStyle;rounded=0;orthogonalLoop=1;jettySize=auto;html=1;" parent="1" source="hdlZlnbyhK9wcA2C82vx-72" edge="1">
          <mxGeometry relative="1" as="geometry">
            <mxPoint x="185" y="1180" as="targetPoint" />
            <Array as="points">
              <mxPoint x="605" y="1180" />
            </Array>
          </mxGeometry>
        </mxCell>
        <mxCell id="hdlZlnbyhK9wcA2C82vx-72" value="max = N&lt;div&gt;flag = True&lt;/div&gt;" style="whiteSpace=wrap;html=1;" parent="1" vertex="1">
          <mxGeometry x="535" y="1405" width="120" height="60" as="geometry" />
        </mxCell>
        <mxCell id="hdlZlnbyhK9wcA2C82vx-106" value="" style="edgeStyle=orthogonalEdgeStyle;rounded=0;orthogonalLoop=1;jettySize=auto;html=1;" parent="1" source="hdlZlnbyhK9wcA2C82vx-87" target="hdlZlnbyhK9wcA2C82vx-105" edge="1">
          <mxGeometry relative="1" as="geometry" />
        </mxCell>
        <mxCell id="hdlZlnbyhK9wcA2C82vx-87" value="&quot;El máximo registrado fue &quot;, max" style="shape=parallelogram;perimeter=parallelogramPerimeter;whiteSpace=wrap;html=1;fixedSize=1;" parent="1" vertex="1">
          <mxGeometry x="85" y="1720" width="205" height="60" as="geometry" />
        </mxCell>
        <mxCell id="hdlZlnbyhK9wcA2C82vx-89" value="" style="endArrow=classic;html=1;rounded=0;" parent="1" edge="1">
          <mxGeometry width="50" height="50" relative="1" as="geometry">
            <mxPoint x="265" y="1740" as="sourcePoint" />
            <mxPoint x="315" y="1690" as="targetPoint" />
            <Array as="points">
              <mxPoint x="295" y="1710" />
            </Array>
          </mxGeometry>
        </mxCell>
        <mxCell id="hdlZlnbyhK9wcA2C82vx-98" style="edgeStyle=orthogonalEdgeStyle;rounded=0;orthogonalLoop=1;jettySize=auto;html=1;" parent="1" source="hdlZlnbyhK9wcA2C82vx-95" edge="1">
          <mxGeometry relative="1" as="geometry">
            <mxPoint x="185" y="1180" as="targetPoint" />
            <Array as="points">
              <mxPoint x="425" y="1180" />
            </Array>
          </mxGeometry>
        </mxCell>
        <mxCell id="hdlZlnbyhK9wcA2C82vx-95" value="flag = True" style="whiteSpace=wrap;html=1;" parent="1" vertex="1">
          <mxGeometry x="360" y="1280" width="120" height="60" as="geometry" />
        </mxCell>
        <mxCell id="hdlZlnbyhK9wcA2C82vx-101" style="edgeStyle=orthogonalEdgeStyle;rounded=0;orthogonalLoop=1;jettySize=auto;html=1;" parent="1" source="hdlZlnbyhK9wcA2C82vx-99" edge="1">
          <mxGeometry relative="1" as="geometry">
            <mxPoint x="185" y="1720" as="targetPoint" />
          </mxGeometry>
        </mxCell>
        <mxCell id="hdlZlnbyhK9wcA2C82vx-108" value="SI" style="edgeLabel;html=1;align=center;verticalAlign=middle;resizable=0;points=[];" parent="hdlZlnbyhK9wcA2C82vx-101" vertex="1" connectable="0">
          <mxGeometry x="0.0311" y="2" relative="1" as="geometry">
            <mxPoint as="offset" />
          </mxGeometry>
        </mxCell>
        <mxCell id="hdlZlnbyhK9wcA2C82vx-104" style="edgeStyle=orthogonalEdgeStyle;rounded=0;orthogonalLoop=1;jettySize=auto;html=1;" parent="1" source="hdlZlnbyhK9wcA2C82vx-99" target="hdlZlnbyhK9wcA2C82vx-102" edge="1">
          <mxGeometry relative="1" as="geometry">
            <Array as="points">
              <mxPoint x="435" y="1575" />
            </Array>
          </mxGeometry>
        </mxCell>
        <mxCell id="hdlZlnbyhK9wcA2C82vx-109" value="NO" style="edgeLabel;html=1;align=center;verticalAlign=middle;resizable=0;points=[];" parent="hdlZlnbyhK9wcA2C82vx-104" vertex="1" connectable="0">
          <mxGeometry x="0.07" y="2" relative="1" as="geometry">
            <mxPoint as="offset" />
          </mxGeometry>
        </mxCell>
        <mxCell id="hdlZlnbyhK9wcA2C82vx-99" value="flag" style="rhombus;whiteSpace=wrap;html=1;" parent="1" vertex="1">
          <mxGeometry x="130" y="1535" width="110" height="80" as="geometry" />
        </mxCell>
        <mxCell id="hdlZlnbyhK9wcA2C82vx-107" style="edgeStyle=orthogonalEdgeStyle;rounded=0;orthogonalLoop=1;jettySize=auto;html=1;entryX=0.5;entryY=0;entryDx=0;entryDy=0;" parent="1" source="hdlZlnbyhK9wcA2C82vx-102" target="hdlZlnbyhK9wcA2C82vx-105" edge="1">
          <mxGeometry relative="1" as="geometry" />
        </mxCell>
        <mxCell id="hdlZlnbyhK9wcA2C82vx-102" value="&quot;Sin datos&quot;" style="shape=parallelogram;perimeter=parallelogramPerimeter;whiteSpace=wrap;html=1;fixedSize=1;" parent="1" vertex="1">
          <mxGeometry x="335" y="1590" width="170" height="60" as="geometry" />
        </mxCell>
        <mxCell id="hdlZlnbyhK9wcA2C82vx-103" value="" style="endArrow=classic;html=1;rounded=0;" parent="1" edge="1">
          <mxGeometry width="50" height="50" relative="1" as="geometry">
            <mxPoint x="468" y="1760" as="sourcePoint" />
            <mxPoint x="518" y="1710" as="targetPoint" />
            <Array as="points">
              <mxPoint x="498" y="1730" />
            </Array>
          </mxGeometry>
        </mxCell>
        <mxCell id="hdlZlnbyhK9wcA2C82vx-105" value="FIN" style="ellipse;whiteSpace=wrap;html=1;" parent="1" vertex="1">
          <mxGeometry x="380" y="1710" width="80" height="80" as="geometry" />
        </mxCell>
        <mxCell id="hdlZlnbyhK9wcA2C82vx-111" value="Empiezo definiendo un flag y un valor mínimo en 0&lt;div&gt;Pido y leo número del usuario o bien la entrada &quot;FIN&quot;&lt;/div&gt;&lt;div&gt;Primero pregunto si la variable que ingresó el usuario es &quot;FIN&quot;&lt;/div&gt;&lt;div&gt;&lt;br&gt;&lt;/div&gt;&lt;div&gt;&lt;span style=&quot;white-space: pre;&quot;&gt;&#x9;&lt;/span&gt;En caso de que no sea &quot;FIN&quot;, pregunto si el &lt;span style=&quot;white-space: pre;&quot;&gt;&#x9;&lt;/span&gt;número N &lt;span style=&quot;white-space: pre;&quot;&gt;&#x9;&lt;/span&gt;ingresado es mayor al máximo que &lt;span style=&quot;white-space: pre;&quot;&gt;&#x9;&lt;/span&gt;tengo registrado&lt;/div&gt;&lt;div&gt;&lt;br&gt;&lt;/div&gt;&lt;div&gt;&lt;span style=&quot;white-space: pre;&quot;&gt;&#x9;&lt;/span&gt;&lt;span style=&quot;white-space: pre;&quot;&gt;&#x9;&lt;/span&gt;Si el número N es mayor al máximo registrado, entonces &lt;span style=&quot;white-space: pre;&quot;&gt;&#x9;&lt;/span&gt;&lt;span style=&quot;white-space: pre;&quot;&gt;&#x9;&lt;/span&gt;actualizo el registro con el valor de N.&lt;/div&gt;&lt;div&gt;&lt;br&gt;&lt;/div&gt;&lt;div&gt;&lt;span style=&quot;white-space: pre;&quot;&gt;&#x9;&lt;/span&gt;&lt;span style=&quot;white-space: pre;&quot;&gt;&#x9;&lt;/span&gt;Adicionalmente se activa el flag como &quot;True&quot;, &lt;span style=&quot;white-space: pre;&quot;&gt;&#x9;&lt;/span&gt;&lt;span style=&quot;white-space: pre;&quot;&gt;&#x9;&lt;/span&gt;esto me dice que ya se ingresó un número a &lt;span style=&quot;white-space: pre;&quot;&gt;&#x9;&lt;/span&gt;&lt;span style=&quot;white-space: pre;&quot;&gt;&#x9;&lt;/span&gt;comparar&lt;br&gt;&lt;/div&gt;&lt;div&gt;&lt;br&gt;&lt;/div&gt;&lt;div&gt;&lt;span style=&quot;white-space: pre;&quot;&gt;&#x9;&lt;/span&gt;Si el usuario ingresa &quot;FIN&quot;, entonces se pregunta&amp;nbsp; &quot;flag&quot;, flag &lt;span style=&quot;white-space: pre;&quot;&gt;&#x9;&lt;/span&gt;tendrá un valor de True o False, si es &lt;span style=&quot;white-space: pre;&quot;&gt;&#x9;&lt;/span&gt;True tomará el &lt;span style=&quot;white-space: pre;&quot;&gt;&#x9;&lt;/span&gt;camino del SI, si es False, quiere &lt;span style=&quot;white-space: pre;&quot;&gt;&#x9;&lt;/span&gt;decir que nunca se &lt;span style=&quot;white-space: pre;&quot;&gt;&#x9;&lt;/span&gt;ingresaron datos y tomará el &lt;span style=&quot;white-space: pre;&quot;&gt;&#x9;&lt;/span&gt;camino del NO.&lt;br&gt;&lt;/div&gt;&lt;div&gt;&lt;br&gt;&lt;/div&gt;&lt;div&gt;&lt;span style=&quot;white-space: pre;&quot;&gt;&#x9;&lt;/span&gt;&lt;span style=&quot;white-space: pre;&quot;&gt;&#x9;&lt;/span&gt;Si el flag es False, se imprime &quot;Sin datos&quot;&lt;br&gt;&lt;/div&gt;&lt;div&gt;&lt;span style=&quot;white-space: pre;&quot;&gt;&#x9;&lt;/span&gt;&lt;span style=&quot;white-space: pre;&quot;&gt;&#x9;&lt;/span&gt;&lt;br&gt;&lt;/div&gt;&lt;div&gt;&lt;span style=&quot;white-space: pre;&quot;&gt;&#x9;&lt;/span&gt;&lt;span style=&quot;white-space: pre;&quot;&gt;&#x9;&lt;/span&gt;Si el flag es True, se imprime el máximo &lt;span style=&quot;white-space: pre;&quot;&gt;&#x9;&lt;/span&gt;&lt;span style=&quot;white-space: pre;&quot;&gt;&#x9;&lt;/span&gt;registrado&lt;br&gt;&lt;/div&gt;" style="whiteSpace=wrap;html=1;aspect=fixed;align=left;" parent="1" vertex="1">
          <mxGeometry x="525" y="1500" width="360" height="360" as="geometry" />
        </mxCell>
      </root>
    </mxGraphModel>
  </diagram>
</mxfile>
